<?xml version="1.0" encoding="UTF-8"?>
<svg version="1.1" xmlns="http://www.w3.org/2000/svg" width="120" height="119">
<path d="M0 0 C13.29901167 9.13687687 23.05518418 21.67490096 26.84277344 37.51855469 C27.65509609 42.2191172 27.72630893 46.92674102 27.75 51.6875 C27.75942627 53.11872192 27.75942627 53.11872192 27.76904297 54.57885742 C27.49368696 69.99478371 20.82437678 83.34190064 10.10546875 94.1796875 C-2.82308873 106.38311385 -18.15107818 111.47180076 -35.7421875 111.1875 C-52.10394783 110.22267875 -65.24061878 103.34371202 -76.75 91.875 C-77.31460938 91.33359375 -77.87921875 90.7921875 -78.4609375 90.234375 C-87.95908308 80.28393677 -92.70005025 65.59079945 -93.1875 52.125 C-92.74577245 35.43137956 -86.75520355 20.22761945 -75.12890625 8.08984375 C-54.49586384 -11.12023022 -24.24201721 -14.11001002 0 0 Z " fill="#08194C" transform="translate(92.75,8.125)"/>
<path d="M0 0 C0 32 0 32 -0.5625 35 C-0.97192404 37.80747914 -0.91248055 39.36394509 0 42 C-1.98 42.495 -1.98 42.495 -4 43 C-4.66 41.68 -5.32 40.36 -6 39 C-6 54.51 -6 70.02 -6 86 C-9.465 86.495 -9.465 86.495 -13 87 C-13 73.14 -13 59.28 -13 45 C-14.485 45.495 -14.485 45.495 -16 46 C-16 43.03 -16 40.06 -16 37 C-15.01 37 -14.02 37 -13 37 C-11.81509328 33.44527983 -11.93851993 30.61759928 -12 26.875 C-12.03748646 24.58363995 -12.04687851 22.29118714 -12 20 C-11.67 19.67 -11.34 19.34 -11 19 C-11.08378906 18.18273437 -11.16757813 17.36546875 -11.25390625 16.5234375 C-11.58776532 13.11722972 -11.67786277 10.36389399 -11 7 C-8.47539439 4.28604897 -3.99231472 0 0 0 Z " fill="#6F7A9B" transform="translate(100,20)"/>
<path d="M0 0 C1.32 0.66 2.64 1.32 4 2 C4 13.88 4 25.76 4 38 C4.66 38 5.32 38 6 38 C6.37478592 41.49619786 6.66322248 44.99459946 6.9375 48.5 C7.04384766 49.48226562 7.15019531 50.46453125 7.25976562 51.4765625 C7.76840946 58.74290296 7.76840946 58.74290296 5.52319336 62.41601562 C3.77418096 64.41853119 1.97112338 66.21871282 0 68 C-0.763125 68.825 -1.52625 69.65 -2.3125 70.5 C-4 72 -4 72 -6 72 C-6.04934926 66.34001954 -6.08569529 60.68016364 -6.10986328 55.02001953 C-6.11993582 53.09356506 -6.13359443 51.16712592 -6.15087891 49.24072266 C-6.17507241 46.47554748 -6.18647036 43.710574 -6.1953125 40.9453125 C-6.20563507 40.0806839 -6.21595764 39.2160553 -6.22659302 38.32522583 C-6.22699106 36.21546479 -6.12265243 34.10619282 -6 32 C-5.34 31.34 -4.68 30.68 -4 30 C-4.66 29.67 -5.32 29.34 -6 29 C-5.34 29 -4.68 29 -4 29 C-4.56739868 24.87026372 -4.56739868 24.87026372 -6 21 C-5.01 20.67 -4.02 20.34 -3 20 C-3.66 18.35 -4.32 16.7 -5 15 C-4.34 14.34 -3.68 13.68 -3 13 C-2.61533818 9.88336503 -2.49291013 6.78843551 -2.34375 3.65234375 C-2.2303125 2.77707031 -2.116875 1.90179688 -2 1 C-1.34 0.67 -0.68 0.34 0 0 Z " fill="#76829A" transform="translate(102,35)"/>
<path d="M0 0 C1 1 1 1 1.0625 4.5625 C1.041875 5.696875 1.02125 6.83125 1 8 C0.00419922 8.03867187 0.00419922 8.03867187 -1.01171875 8.078125 C-6.51766256 8.43179146 -10.04186392 8.7865003 -14 13 C-15.53214888 16.06429776 -15.22938548 18.6165642 -15 22 C-13.59539303 24.87305972 -12.25489001 26.74510999 -10 29 C-7.33757179 29.46290221 -7.33757179 29.46290221 -4.375 29.625 C-3.37210938 29.69976562 -2.36921875 29.77453125 -1.3359375 29.8515625 C-0.56507812 29.90054688 0.20578125 29.94953125 1 30 C1 32.64 1 35.28 1 38 C-6.05234715 38.52892604 -11.53042298 38.72791549 -17.3828125 34.4296875 C-21.30647455 30.96094279 -24.52186544 26.95940127 -25.37109375 21.703125 C-25.54862889 15.14476799 -24.24951132 11.0295586 -20 6 C-13.90766339 0.21228022 -8.16744898 -0.65037094 0 0 Z " fill="#F2F4F6" transform="translate(78,41)"/>
<path d="M0 0 C0.66 0.33 1.32 0.66 2 1 C1.67 16.84 1.34 32.68 1 49 C-2.465 49.495 -2.465 49.495 -6 50 C-6 36.47 -6 22.94 -6 9 C-5.34 8.67 -4.68 8.34 -4 8 C-3.34786708 5.97536745 -3.34786708 5.97536745 -3 4 C-3 4.99 -3 5.98 -3 7 C-2.01 7 -1.02 7 0 7 C0 4.69 0 2.38 0 0 Z " fill="#8590AA" transform="translate(93,57)"/>
<path d="M0 0 C4.8434046 0.41514897 6.81587829 2.46208699 10 6 C10.33 6.33 10.66 6.66 11 7 C11.42407099 11.66478085 10.69319525 14.18464006 8 18 C8.495 18.350625 8.99 18.70125 9.5 19.0625 C11.82850957 22.0701582 11.44572235 24.30687194 11 28 C9.4375 30.875 9.4375 30.875 7 33 C3.25 33.8125 3.25 33.8125 0 34 C0 31.69 0 29.38 0 27 C0.66 27 1.32 27 2 27 C1.67 26.360625 1.34 25.72125 1 25.0625 C-0.514431 20.42455506 -0.65590567 15.52992187 0.57421875 10.78515625 C0.71472656 10.19605469 0.85523438 9.60695313 1 9 C0.67 8.67 0.34 8.34 0 8 C-0.14115161 5.32941149 -0.04247107 2.67567762 0 0 Z " fill="#F6F8F9" transform="translate(32,43)"/>
<path d="M0 0 C0.66 0.33 1.32 0.66 2 1 C2 1.99 2 2.98 2 4 C2.66 4.33 3.32 4.66 4 5 C4 17.21 4 29.42 4 42 C3.67 42 3.34 42 3 42 C2.938125 43.093125 2.87625 44.18625 2.8125 45.3125 C2 49 2 49 -0.5625 50.9375 C-1.366875 51.288125 -2.17125 51.63875 -3 52 C-3.33 51.34 -3.66 50.68 -4 50 C-5.65821773 49.62690101 -7.32577014 49.29299023 -9 49 C-11.11263059 46.88736941 -10.18864061 42.21461034 -10.203125 39.29296875 C-10.20882507 38.41602859 -10.21452515 37.53908844 -10.22039795 36.63557434 C-10.22986403 34.77520968 -10.23638829 32.91482813 -10.24023438 31.05444336 C-10.24992396 28.20982454 -10.28092517 25.36593292 -10.3125 22.52148438 C-10.31903138 20.71615014 -10.32428132 18.91081071 -10.328125 17.10546875 C-10.3404718 16.25429977 -10.3528186 15.4031308 -10.36553955 14.52616882 C-10.343157 8.57980749 -10.343157 8.57980749 -8.47949219 5.4309082 C-7.99125977 4.9587085 -7.50302734 4.48650879 -7 4 C-7 4.66 -7 5.32 -7 6 C-6.01 6.33 -5.02 6.66 -4 7 C-4.99 7 -5.98 7 -7 7 C-7 20.53 -7 34.06 -7 48 C-6.34 48 -5.68 48 -5 48 C-4.67 47.34 -4.34 46.68 -4 46 C-2.68 46.33 -1.36 46.66 0 47 C0 31.49 0 15.98 0 0 Z " fill="#425178" transform="translate(94,59)"/>
<path d="M0 0 C1.32 0.66 2.64 1.32 4 2 C4 6.62 4 11.24 4 16 C2.68 16 1.36 16 0 16 C0.0721875 16.95132813 0.144375 17.90265625 0.21875 18.8828125 C0.88557782 28.56662118 1.13338403 38.24585143 1.17724609 47.95062256 C1.18408621 49.31770933 1.19434437 50.68478324 1.20800781 52.05181885 C1.22588035 53.99281139 1.22847765 55.9339262 1.23046875 57.875 C1.23457764 59.00679687 1.23868652 60.13859375 1.24291992 61.3046875 C1 64 1 64 -1 66 C-1.33 53.46 -1.66 40.92 -2 28 C-2.66 27.67 -3.32 27.34 -4 27 C-4.72693904 25.02111039 -5.39816251 23.02045442 -6 21 C-5.01 20.67 -4.02 20.34 -3 20 C-3.66 18.35 -4.32 16.7 -5 15 C-4.34 14.34 -3.68 13.68 -3 13 C-2.61533818 9.88336503 -2.49291013 6.78843551 -2.34375 3.65234375 C-2.2303125 2.77707031 -2.116875 1.90179688 -2 1 C-1.34 0.67 -0.68 0.34 0 0 Z " fill="#414F72" transform="translate(102,35)"/>
<path d="M0 0 C1.65 0 3.3 0 5 0 C5 11.88 5 23.76 5 36 C3.35 36 1.7 36 0 36 C0 24.12 0 12.24 0 0 Z " fill="#ECEFF2" transform="translate(19,42)"/>
<path d="M0 0 C1.65 0 3.3 0 5 0 C5 11.88 5 23.76 5 36 C3.35 36 1.7 36 0 36 C0 24.12 0 12.24 0 0 Z " fill="#ECEFF2" transform="translate(12,42)"/>
<path d="M0 0 C0.66 0 1.32 0 2 0 C2 12.87 2 25.74 2 39 C1.01 39 0.02 39 -1 39 C-1.02464849 33.60653012 -1.04283531 28.21309275 -1.05493164 22.81958008 C-1.05997231 20.98331125 -1.06680477 19.14704646 -1.07543945 17.31079102 C-1.08751672 14.67723599 -1.09323081 12.04373384 -1.09765625 9.41015625 C-1.10281754 8.58411392 -1.10797882 7.75807159 -1.11329651 6.90699768 C-1.11349205 4.93763632 -1.06204152 2.96838386 -1 1 C-0.67 0.67 -0.34 0.34 0 0 Z " fill="#F5F7F8" transform="translate(91,65)"/>
<path d="M0 0 C0 4.95 0 9.9 0 15 C-5 17 -5 17 -8 17 C-9.0708332 6.34266009 -9.0708332 6.34266009 -6.4765625 3.08984375 C-2.0625 0 -2.0625 0 0 0 Z " fill="#F8FAFA" transform="translate(100,20)"/>
<path d="M0 0 C0 3.96 0 7.92 0 12 C-2.64 12.99 -5.28 13.98 -8 15 C-8 11.04 -8 7.08 -8 3 C-2.25 0 -2.25 0 0 0 Z " fill="#F9FAFB" transform="translate(100,36)"/>
<path d="M0 0 C0.33 0 0.66 0 1 0 C1 6.6 1 13.2 1 20 C1.66 20 2.32 20 3 20 C3.19632025 23.6245793 3.38055978 27.24967267 3.5625 30.875 C3.61857422 31.90753906 3.67464844 32.94007812 3.73242188 34.00390625 C3.78076172 34.99003906 3.82910156 35.97617188 3.87890625 36.9921875 C3.9260376 37.90339355 3.97316895 38.81459961 4.02172852 39.75341797 C4 42 4 42 3 44 C2.01 44 1.02 44 0 44 C0 29.48 0 14.96 0 0 Z " fill="#8692A7" transform="translate(105,53)"/>
<path d="M0 0 C0.33 0.66 0.66 1.32 1 2 C1.99 2.33 2.98 2.66 4 3 C3.01 3 2.02 3 1 3 C1 16.53 1 30.06 1 44 C1.66 44 2.32 44 3 44 C3.33 43.34 3.66 42.68 4 42 C5.98 42.33 7.96 42.66 10 43 C9 46 9 46 6.9375 47.1875 C6.298125 47.455625 5.65875 47.72375 5 48 C4.67 47.34 4.34 46.68 4 46 C1.97536745 45.34786708 1.97536745 45.34786708 0 45 C-0.1675655 39.07365273 -0.32813049 33.14717308 -0.48217773 27.22045898 C-0.53558505 25.20380535 -0.59091343 23.18720165 -0.64819336 21.1706543 C-0.73013953 18.27403531 -0.80520145 15.37730769 -0.87890625 12.48046875 C-0.90594131 11.57725388 -0.93297638 10.674039 -0.96083069 9.74345398 C-0.98092697 8.90280899 -1.00102325 8.062164 -1.02172852 7.19604492 C-1.04171402 6.45658127 -1.06169952 5.71711761 -1.08229065 4.95524597 C-1 3 -1 3 0 0 Z " fill="#2C3B62" transform="translate(86,63)"/>
<path d="M0 0 C0.66 0.33 1.32 0.66 2 1 C2 8.26 2 15.52 2 23 C1.01 23 0.02 23 -1 23 C-1.02887512 19.35418313 -1.04675585 15.70839537 -1.0625 12.0625 C-1.07087891 11.02158203 -1.07925781 9.98066406 -1.08789062 8.90820312 C-1.09272461 7.42416992 -1.09272461 7.42416992 -1.09765625 5.91015625 C-1.10289307 4.99371338 -1.10812988 4.07727051 -1.11352539 3.13305664 C-1 1 -1 1 0 0 Z " fill="#CFD5DC" transform="translate(48,55)"/>
<path d="M0 0 C0.33 0 0.66 0 1 0 C1 3.96 1 7.92 1 12 C2.65 11.34 4.3 10.68 6 10 C6.99 10.33 7.98 10.66 9 11 C5.535 12.485 5.535 12.485 2 14 C2 18.29 2 22.58 2 27 C1.34 27 0.68 27 0 27 C0 22.71 0 18.42 0 14 C-0.66 14 -1.32 14 -2 14 C-2.05389087 12.04196493 -2.09274217 10.08351091 -2.125 8.125 C-2.14820312 7.03445312 -2.17140625 5.94390625 -2.1953125 4.8203125 C-2 2 -2 2 0 0 Z " fill="#7A85A1" transform="translate(91,25)"/>
<path d="M0 0 C1.98 0.99 1.98 0.99 4 2 C4 6.62 4 11.24 4 16 C2.68 15.67 1.36 15.34 0 15 C0 10.05 0 5.1 0 0 Z " fill="#6F7C96" transform="translate(102,35)"/>
<path d="M0 0 C-0.33 13.2 -0.66 26.4 -1 40 C-1.33 40 -1.66 40 -2 40 C-2 27.46 -2 14.92 -2 2 C-2.66 1.67 -3.32 1.34 -4 1 C-2 0 -2 0 0 0 Z " fill="#919CB2" transform="translate(100,63)"/>
<path d="M0 0 C5.75 -0.125 5.75 -0.125 8 1 C8 2.65 8 4.3 8 6 C6.576875 6.2165625 6.576875 6.2165625 5.125 6.4375 C2.1065506 6.82935399 2.1065506 6.82935399 0 8 C0 5.36 0 2.72 0 0 Z " fill="#F4F6F7" transform="translate(85,58)"/>
<path d="M0 0 C0.66 0.33 1.32 0.66 2 1 C1.26394531 1.72445313 0.52789063 2.44890625 -0.23046875 3.1953125 C-7.43016311 10.30935914 -7.43016311 10.30935914 -14 18 C-14.66 17.67 -15.32 17.34 -16 17 C-11.17008141 10.6157725 -6.25039805 5.02026652 0 0 Z " fill="#2A375F" transform="translate(25,10)"/>
<path d="M0 0 C0 4.29 0 8.58 0 13 C0.66 13.33 1.32 13.66 2 14 C0.35 14.33 -1.3 14.66 -3 15 C-3 10.38 -3 5.76 -3 1 C-1 0 -1 0 0 0 Z " fill="#EFF1F3" transform="translate(91,39)"/>
<path d="M0 0 C0.33 0 0.66 0 1 0 C1 2.64 1 5.28 1 8 C1.66 8 2.32 8 3 8 C3.33 7.34 3.66 6.68 4 6 C6.97 6.495 6.97 6.495 10 7 C9 10 9 10 6.9375 11.1875 C6.298125 11.455625 5.65875 11.72375 5 12 C4.67 11.34 4.34 10.68 4 10 C2.68 9.67 1.36 9.34 0 9 C0 6.03 0 3.06 0 0 Z " fill="#152360" transform="translate(86,99)"/>
<path d="M0 0 C0.33 4.95 0.66 9.9 1 15 C0.34 15 -0.32 15 -1 15 C-1 13.02 -1 11.04 -1 9 C-1.66 8.67 -2.32 8.34 -3 8 C-3.72693904 6.02111039 -4.39816251 4.02045442 -5 2 C-1.125 0 -1.125 0 0 0 Z " fill="#3B4778" transform="translate(101,54)"/>
<path d="M0 0 C0.33 0.66 0.66 1.32 1 2 C1.66 2.33 2.32 2.66 3 3 C1.54782324 4.50596108 0.08807139 6.00462104 -1.375 7.5 C-2.18710938 8.3353125 -2.99921875 9.170625 -3.8359375 10.03125 C-6 12 -6 12 -8 12 C-7.67 10.02 -7.34 8.04 -7 6 C-6.67 6.66 -6.34 7.32 -6 8 C-5.34 8 -4.68 8 -4 8 C-4 7.34 -4 6.68 -4 6 C-3.34 6 -2.68 6 -2 6 C-2 5.34 -2 4.68 -2 4 C-1.34 4 -0.68 4 0 4 C0 2.68 0 1.36 0 0 Z " fill="#2F3D64" transform="translate(104,95)"/>
<path d="M0 0 C-0.33 0.99 -0.66 1.98 -1 3 C-0.61067144 5.14255793 -0.61067144 5.14255793 0 7 C-1.32 7.33 -2.64 7.66 -4 8 C-4.28875 7.21625 -4.5775 6.4325 -4.875 5.625 C-5.84912254 2.90328368 -5.84912254 2.90328368 -8 1 C-2.25 -1.125 -2.25 -1.125 0 0 Z " fill="#BCC4D4" transform="translate(100,55)"/>
<path d="M0 0 C0.598125 0.350625 1.19625 0.70125 1.8125 1.0625 C1.8125 1.7225 1.8125 2.3825 1.8125 3.0625 C-0.1675 3.3925 -2.1475 3.7225 -4.1875 4.0625 C-4.5175 2.7425 -4.8475 1.4225 -5.1875 0.0625 C-2.1875 -0.9375 -2.1875 -0.9375 0 0 Z " fill="#B3BCD1" transform="translate(98.1875,49.9375)"/>
<path d="M0 0 C0 2.31 0 4.62 0 7 C-0.99 7 -1.98 7 -3 7 C-3 5.02 -3 3.04 -3 1 C-1 0 -1 0 0 0 Z " fill="#B3BBCF" transform="translate(93,97)"/>
<path d="M0 0 C1.98 0 3.96 0 6 0 C5 3 5 3 2.9375 4.1875 C2.298125 4.455625 1.65875 4.72375 1 5 C0.67 3.35 0.34 1.7 0 0 Z " fill="#1D2D62" transform="translate(90,106)"/>
</svg>
